<svg xmlns="http://www.w3.org/2000/svg" viewBox="0 0 290.56 73.71"><title>bazaar</title><path d="M-151.38,34.51h-5.71V70h6.74c7,0,11-6.56,11.11-17,.15-12.26-4.69-18.47-12.14-18.47M-153,1.44l-4,0v32h6.42c5.55,0,10.1-5.83,10.07-16,0-11.36-5.07-16-12.45-16m4.68,69.18h-24.35c-.15,0-.15-.66,0-.66h7V1.43h-7V.74h20.86c8.88,0,20,1.72,20.37,16.26.39,14.33-11.73,17-17.29,17,8.89,0,19.74,6.63,19.74,18.43,0,9.42-7.83,18.23-19.33,18.23" transform="translate(172.83 1.57)" style="fill:#1c1c1c"/><path d="M-110.79,14l-9.43,35.2h18Zm6.92,56.5V70h7.64L-101.83,50h-18.38l-3.91,14.41c-.87,3.57-1.27,5.64-1.27,5.64h7.44v.5h-15.21V70h7s.39-1.78,1.34-5.64l17.61-65.94L-87,70h7v.48Z" transform="translate(172.83 1.57)" style="fill:#1c1c1c"/><path d="M-74.93,70.51-45,.94H-59.49c-10.63.16-13.62,13.15-13.8,26.92,0,1.84-.18,4.27-.26,7,0,0-.48,0-.48,0L-74,.23h38L-65.47,70l13.16,0c12.7-.41,15.22-9.6,15.67-35.18h.58V70.5Z" transform="translate(172.83 1.57)" style="fill:#1c1c1c"/><path d="M89.22.94H84.06V33.61h6.42c7.22,0,10.7-4.51,11.2-15.78C102.24,5.45,96,.94,89.22.94m25.87,70.37a9.88,9.88,0,0,1-4.4.84c-7.17,0-9.63-5.27-9.34-19.23V46.47c0-8.72-4.2-11.75-10.86-11.75H84.07V70.07h8.28v.39H68.44l0-.37h7l0-69.21-7,0V.18H91c10.94,0,20,3,20,17.25,0,12.05-9.76,16.66-17.38,16.66,11.26,0,17.94,4.72,16.64,19L110,62c0,5.05.66,8.79,3.55,8.77a3.15,3.15,0,0,0,2.42-.89,5.11,5.11,0,0,0,1.11-2.54,9.26,9.26,0,0,0,.1-2.19s0-10.3,0-10.35a2.62,2.62,0,0,0,.56,0v6.42c.07,5.75.06,6.45-.42,7.6a4.85,4.85,0,0,1-2.19,2.45" transform="translate(172.83 1.57)" style="fill:#1c1c1c"/><path d="M-10.48,14l-9.43,35.19h18Zm6.91,56.5v-.48H4.08L-1.52,50H-19.9l-3.91,14.4C-24.68,68-25.08,70-25.08,70h7.44v.5H-32.85V70h7s.39-1.78,1.34-5.65L-6.92-1.55l20.25,71.6h7v.47Z" transform="translate(172.83 1.57)" style="fill:#1c1c1c"/><path d="M38.89,14l-9.42,35.2h18Zm6.92,56.51v-.5h7.64l-5.6-20H29.47L25.56,64.4c-.87,3.57-1.27,5.65-1.27,5.65h7.44v.5H16.52v-.49h7s.38-1.78,1.33-5.65L42.46-1.53,62.7,70.06h7v.49Z" transform="translate(172.83 1.57)" style="fill:#1c1c1c"/><polygon points="175.26 5.35 175.26 8.79 176.31 8.79 176.31 9.08 172.83 9.08 172.83 8.79 173.89 8.79 173.89 1.85 172.83 1.85 172.83 1.56 176.31 1.56 176.31 1.85 175.26 1.85 175.26 5.07 178.1 5.07 178.1 1.85 177.04 1.85 177.04 1.56 180.52 1.56 180.52 1.85 179.46 1.85 179.46 8.79 180.52 8.79 180.52 9.08 177.04 9.08 177.04 8.79 178.1 8.79 178.1 5.35 175.26 5.35" style="fill:#1c1c1c"/><path d="M10.88,5.26c-.66,0-1.55.09-1.55,1,0,.5.19.87.7.87a.88.88,0,0,0,.77-.67,1.51,1.51,0,0,0,.08-.58Zm0-1.64c0-.29-.52-.4-.7-.4-.41,0-.91.21-.75.42a1.16,1.16,0,0,1,.15.54.53.53,0,0,1-.52.5.51.51,0,0,1-.55-.53C8.51,3.29,9.56,3,10.21,3a2.91,2.91,0,0,1,1.36.3A.66.66,0,0,1,12,4V7c0,.15.13.21.25.21s.29-.16.38-.25l.13.15a1.25,1.25,0,0,1-1,.6.81.81,0,0,1-.83-.8,2,2,0,0,1-1.56.8A1,1,0,0,1,8.21,6.59C8.21,5.25,9.92,5,10.88,5Z" transform="translate(172.83 1.57)" style="fill:#1c1c1c"/><path d="M14.87,4.26c.35-.62.72-1.27,1.5-1.27a.76.76,0,0,1,.85.73.59.59,0,0,1-.67.63A.53.53,0,0,1,16,3.83a1,1,0,0,1,0-.16c0-.18,0-.25-.08-.25s-.3.11-.44.26c-.41.42-.67,1-.67,2.5V7.23h1v.28H13.09V7.23h.63V3.34H13V3.06c.55,0,1.2,0,1.85-.05Z" transform="translate(172.83 1.57)" style="fill:#1c1c1c"/><path d="M21.28,4.19c0-.6-.16-1-.81-1s-1.25.86-1.25,1.29V6a1.39,1.39,0,0,0,1.23,1.48.75.75,0,0,0,.83-.85Zm-2.06-.27h0A1.54,1.54,0,0,1,20.55,3a2.21,2.21,0,0,1,2,2.33,2.28,2.28,0,0,1-2,2.36,1.34,1.34,0,0,1-1.31-.8h0v3H20v.28H17.3V9.86h.77V3.34h-.78V3.06c.63,0,1.28,0,1.93-.05Z" transform="translate(172.83 1.57)" style="fill:#1c1c1c"/><path d="M25.9,4.75c0-.76.19-1.53-.76-1.53s-.79.82-.79,1.53ZM24.35,5v.9c0,.78,0,1.52.95,1.52a1.68,1.68,0,0,0,1.56-1.34h.27a1.92,1.92,0,0,1-2.05,1.57,2.23,2.23,0,0,1-2-2.33A2.31,2.31,0,0,1,25.2,3a1.85,1.85,0,0,1,1.91,1.83c0,.24-.1.21-.27.21Z" transform="translate(172.83 1.57)" style="fill:#1c1c1c"/><path d="M29.33,4.26c.34-.62.72-1.27,1.5-1.27a.77.77,0,0,1,.85.73.59.59,0,0,1-.67.63.54.54,0,0,1-.52-.52.5.5,0,0,1,0-.16c0-.18,0-.25-.08-.25a.59.59,0,0,0-.45.26,3.31,3.31,0,0,0-.66,2.5V7.23h1v.28H27.55V7.23h.63V3.34h-.71V3.06c.56,0,1.21,0,1.86-.05Z" transform="translate(172.83 1.57)" style="fill:#1c1c1c"/><path d="M33.62,2.08A2.39,2.39,0,0,1,32.51,4a.14.14,0,0,1-.2-.14s.17-.18.2-.2a2.17,2.17,0,0,0,.8-1.44c0-.09,0-.46-.18-.46S33,1.8,33,1.9a.54.54,0,0,1-.56.41.64.64,0,0,1-.59-.7.75.75,0,0,1,.78-.76c.68,0,1,.57,1,1.23" transform="translate(172.83 1.57)" style="fill:#1c1c1c"/><path d="M33.81,7.51h-.17V5.9h.29c.11.8.55,1.55,1.36,1.55a.93.93,0,0,0,1-.9c0-.56-.49-.61-1-.69-1.1-.16-1.51-.63-1.51-1.5A1.27,1.27,0,0,1,35,3a1.69,1.69,0,0,1,1.05.36l.17-.29h.18V4.38h-.28A1.23,1.23,0,0,0,35,3.22a.79.79,0,0,0-.86.77c0,.34,0,.46,1,.63s1.53.35,1.53,1.51a1.37,1.37,0,0,1-1.53,1.55,1.71,1.71,0,0,1-1.07-.47Z" transform="translate(172.83 1.57)" style="fill:#1c1c1c"/></svg>