<svg viewBox="0 0 55 19" xmlns="http://www.w3.org/2000/svg" class="logo link-text nav-item" data-v-734ead72="" data-v-1a36a716=""><path d="M3.27138 7.80669C3.66171 9.38662 4.92565 10.5019 6.85874 10.5019C8.02974 10.5019 9.27509 10.0744 10.0372 9.05205L12.3234 10.8736C11.1524 12.5279 9.08922 13.513 6.87732 13.513C2.99257 13.5316 0 10.6134 0 6.84015C0 3.15985 2.58364 0 6.69145 0C10.5019 0 13.197 3.10409 13.197 6.74721C13.197 7.10037 13.1784 7.49071 13.1227 7.80669H3.27138ZM9.83271 5.37175C9.64684 4.07063 8.28996 3.06691 6.67286 3.06691C5.13011 3.06691 3.86617 3.99628 3.3829 5.37175H9.83271Z" data-v-734ead72=""></path> <path d="M15.5576 18.0483L18.5688 11.3941L13.1413 0.241634H17.0074L20.4089 7.71376L23.5502 0.241634H27.2305L19.2007 18.0483H15.5576Z" data-v-734ead72=""></path> <path d="M45.632 13.1784V6.26394C45.632 3.62454 44.461 3.21561 43.2714 3.21561C41.9331 3.21561 40.5762 3.73606 40.5762 6.20818V13.1784H37.2305V6.26394C37.2305 3.62454 36.0595 3.21561 34.8699 3.21561C33.5316 3.21561 32.1747 3.73606 32.1747 6.20818V13.1784H28.829V0.241636H32.1747V1.18959C32.9926 0.594796 33.8104 0 35.5204 0C37.2119 0 38.6989 0.594796 39.6097 1.93309C40.8178 0.464684 42.5651 0 43.9219 0C46.7844 0 48.9777 1.65428 48.9777 5.72491V13.1784H45.632Z" data-v-734ead72=""></path> <path d="M50.7807 11.2454C50.7807 10.0558 51.71 9.14498 52.8996 9.14498C54.0892 9.14498 55 10.0372 55 11.2454C55 12.4349 54.1078 13.3643 52.8996 13.3643C51.71 13.3643 50.7807 12.4349 50.7807 11.2454Z" data-v-734ead72=""></path></svg>