<svg xmlns="http://www.w3.org/2000/svg" viewBox="0 0 258.9 80.14"><title>grazia</title><path d="M-35.24,37.87c0,.36,0,.72,0,1.08,0,.61.29.78.85.79a7.06,7.06,0,0,0,5.62-2.69,12.35,12.35,0,0,0,2.51-5.2,55.12,55.12,0,0,0,1.39-9.39A32.13,32.13,0,0,0-27.1,7.58a11.93,11.93,0,0,0-2.83-4.51A3.42,3.42,0,0,0-32.4,2c-.67,0-1.34,0-2,0s-.87.21-.84.81c0,.35,0,.71,0,1.07v34m0,40.19h3.36v.85h-14.6v-.85h3.66V2h-3.3V1.17s11.06,0,16,0c4.27,0,7.22,2.22,9.41,5.67a21.89,21.89,0,0,1,3.24,10.28,33.23,33.23,0,0,1-2,14.94,16.24,16.24,0,0,1-3.15,5.23,7.86,7.86,0,0,1-5.2,2.61c-.23,0-.67.05-.68.21s.35.36.56.4c4.46.94,7.49,4,8,8.49.41,3.5.53,7,.73,10.55.21,3.83.35,7.67.56,11.5a19.56,19.56,0,0,0,.46,2.72,2.29,2.29,0,0,0,1.69,2c1,.23,1.6-.48,2.18-1.13a5.62,5.62,0,0,0,.35-.5,1.24,1.24,0,0,1,.22-.18c0,.13,0,.25.06.38a.44.44,0,0,1,0,.15,10.39,10.39,0,0,1-2.44,3.86,4.75,4.75,0,0,1-7.15-.55,11.22,11.22,0,0,1-2.32-6.08c-.3-5-.5-10-.63-15a37.21,37.21,0,0,0-1.27-9.86A21.09,21.09,0,0,0-29,43a3.79,3.79,0,0,0-3.61-2.17c-.41,0-.82,0-1.23,0-1.34,0-1.35,0-1.35,1.35,0,5.74,0,35.94,0,35.94" transform="translate(100.39)"/><path d="M-77.89,55.26c0-4.46,0-14.68,0-14.68h-3.6v-.84H-66.4v.84h-3.87v37c0,.41,0,.83,0,1.23,0,.1,0,.28-.22.28s-.18-.12-.21-.2c-.15-.54-.25-1.1-.44-1.63a8.85,8.85,0,0,0-.76-1.82,2,2,0,0,0-2.53-.83,8.21,8.21,0,0,0-2,1.17c-1,.77-1.87,1.6-2.77,2.44-2.39,2.24-5.06,2.39-8,1.13A12.64,12.64,0,0,1-92,75.44a30.27,30.27,0,0,1-4.88-9.85,75.89,75.89,0,0,1-2.9-14.41A87.83,87.83,0,0,1-100,32.63c.77-7.71,2.24-15.27,5.42-22.41a24.8,24.8,0,0,1,4.13-6.61A10.14,10.14,0,0,1-84.65.15a5.66,5.66,0,0,1,6.07,2.29,5.71,5.71,0,0,0,1.25,1.34A2,2,0,0,0-74.11,3a11.48,11.48,0,0,0,.61-1.88c0-.13.11-.36.25-.35s.21.28.22.43q.16,3.23.3,6.44.35,8.67.69,17.34c0,.66.12,1.32.15,2,0,.14-.06.42-.19.42s-.24-.25-.27-.39c-.3-1.91-.58-3.84-.91-5.75a67.49,67.49,0,0,0-3.42-13.5,14.66,14.66,0,0,0-2.9-5,8.16,8.16,0,0,0-2.33-1.67,2.53,2.53,0,0,0-3.42.84A13.87,13.87,0,0,0-87.15,5.1a39.65,39.65,0,0,0-2.47,9.63c-.66,4.81-1.36,9.63-1.74,14.46a115,115,0,0,0-.23,18.56c.21,2.45.2,4.92.41,7.36a80.2,80.2,0,0,0,2.82,17.07,24.4,24.4,0,0,0,2,4.48c.7,1.27,1.72,2.4,3.36,2.33s2.6-1.28,3.29-2.65a18.27,18.27,0,0,0,1.82-8c.1-4.36,0-13.07,0-13.07" transform="translate(100.39)"/><path d="M48.64,78.91S64.59,13.7,65.7,9.18c.48-2,1-4,1.43-6,.21-.9-.1-1.22-1-1.22H59.36a6.46,6.46,0,0,0-5.72,3,18.76,18.76,0,0,0-3,7.64A68.56,68.56,0,0,0,50,22.12H49.4v-21H76S57.89,73.63,57.19,76.46c-.06.25-.11.5-.18.74-.18.64.13.85.7.85h7.23a8.79,8.79,0,0,0,7.74-4.22,16.25,16.25,0,0,0,2.57-8.25c.13-2.5.12-9.28.12-9.28h.76v22.6Z" transform="translate(100.39)"/><path d="M19.5,55.3,14.19,24.78,8.54,55.3Zm.91,23.61V78h3L19.56,56.21H8.33L4.34,78H8.12v.89H0V78H3.15L17.78,0,31.25,78h3v.89Z" transform="translate(100.39)"/><path d="M143.76,55.3l-5.3-30.52L132.81,55.3Zm.91,23.61V78h3.05l-3.89-21.81H132.6L128.6,78h3.79v.89h-8.12V78h3.15L142.05,0l13.47,78h3v.89Z" transform="translate(100.39)"/><polygon points="210.18 1.16 210.18 2.08 206.91 2.08 206.91 78.07 210.18 78.07 210.18 78.91 196 78.91 196 78.07 199.29 78.07 199.28 2.08 196 2.08 196 1.16 210.18 1.16"/></svg>