<svg xmlns="http://www.w3.org/2000/svg" viewBox="0 0 35 35"><title>icon-philosophy-perfume_round</title><path d="M20.32,7.28V14l6.12,6.12a3.58,3.58,0,0,1-2.54,6.12H11.1a3.58,3.58,0,0,1-2.54-6.12L14.68,14V7.28" style="fill:none;stroke:#000;stroke-miterlimit:10;stroke-width:0.5px"/><line x1="22.51" y1="7.28" x2="12.49" y2="7.28" style="fill:none;stroke:#000;stroke-miterlimit:10;stroke-width:0.5px"/><path d="M13.79,20.57a3.71,3.71,0,0,1,3.71,3.71A3.71,3.71,0,0,1,13.79,20.57Z" style="fill:none;stroke:#000;stroke-miterlimit:10;stroke-width:0.5px"/><path d="M21.21,20.57a3.71,3.71,0,0,0-3.71,3.71A3.71,3.71,0,0,0,21.21,20.57Z" style="fill:none;stroke:#000;stroke-miterlimit:10;stroke-width:0.5px"/><polyline points="14.94 18.23 17.5 15.67 20.06 18.23" style="fill:none;stroke:#000;stroke-miterlimit:10;stroke-width:0.5px"/><line x1="17.5" y1="15.67" x2="17.5" y2="19.69" style="fill:none;stroke:#000;stroke-miterlimit:10;stroke-width:0.5px"/><path d="M17.5.5a17,17,0,1,1-17,17,17,17,0,0,1,17-17m0-.5A17.5,17.5,0,1,0,35,17.5,17.51,17.51,0,0,0,17.5,0Z"/></svg>