<svg xmlns="http://www.w3.org/2000/svg" viewBox="0 0 35 35"><title>icon-philosophy-conscious_round</title><path d="M22.68,16.56,17.15,11A6.06,6.06,0,0,0,8.58,19.6l1.89,1.89" style="fill:none;stroke:#000;stroke-miterlimit:10;stroke-width:0.5px"/><path d="M18.55,10.42a7.56,7.56,0,0,1,1-.6,6.06,6.06,0,0,1,6.85,9.78" style="fill:none;stroke:#000;stroke-miterlimit:10;stroke-width:0.5px"/><polyline points="26.42 19.6 17.5 28.52 17.48 28.5 12.05 23.07" style="fill:none;stroke:#000;stroke-miterlimit:10;stroke-width:0.5px"/><polyline points="22.68 12.94 22.68 16.56 19.06 16.56" style="fill:none;stroke:#000;stroke-miterlimit:10;stroke-width:0.5px"/><polyline points="12.05 26.69 12.05 23.07 15.66 23.07" style="fill:none;stroke:#000;stroke-miterlimit:10;stroke-width:0.5px"/><path d="M17.5.5a17,17,0,1,1-17,17,17,17,0,0,1,17-17m0-.5A17.5,17.5,0,1,0,35,17.5,17.51,17.51,0,0,0,17.5,0Z"/></svg>