<svg xmlns="http://www.w3.org/2000/svg" viewBox="0 0 35 35"><title>icon-philosophy-natural_round</title><polyline points="17.46 21.16 13.84 21.16 13.84 17.54" style="fill:none;stroke:#000;stroke-miterlimit:10;stroke-width:0.5px"/><polyline points="22.57 16.05 18.95 16.05 18.95 12.43" style="fill:none;stroke:#000;stroke-miterlimit:10;stroke-width:0.5px"/><path d="M17.5,8.74a8.76,8.76,0,1,0,8.76,8.76V8.78Z" style="fill:none;stroke:#000;stroke-miterlimit:10;stroke-width:0.5px"/><line x1="11.37" y1="23.78" x2="8.01" y2="26.99" style="fill:none;stroke:#000;stroke-miterlimit:10;stroke-width:0.5px"/><line x1="18.95" y1="16.05" x2="22.57" y2="12.43" style="fill:none;stroke:#000;stroke-miterlimit:10;stroke-width:0.5px"/><line x1="13.84" y1="21.16" x2="17.46" y2="17.54" style="fill:none;stroke:#000;stroke-miterlimit:10;stroke-width:0.5px"/><path d="M17.5.5a17,17,0,1,1-17,17,17,17,0,0,1,17-17m0-.5A17.5,17.5,0,1,0,35,17.5,17.51,17.51,0,0,0,17.5,0Z"/></svg>