<svg width="114" height="30" viewBox="0 0 114 30" fill="none" xmlns="http://www.w3.org/2000/svg">
<g clip-path="url(#clip0)">
<path d="M45.6506 14.861C45.6831 11.1153 44.4469 7.46893 42.1434 4.51519C40.1053 1.97013 36.9343 0.0820312 33.6236 0.0820312C30.0388 0.0820312 26.8058 2.06842 24.659 4.86177C22.5185 7.7485 21.3829 11.2571 21.426 14.8506C21.3838 18.5969 22.619 22.2459 24.928 25.1964C26.9972 27.7466 30.1837 29.614 33.5202 29.614C37.0791 29.614 40.2915 27.5914 42.4227 24.8239C44.5548 21.939 45.688 18.4376 45.6506 14.8506V14.861ZM40.5501 14.8506C40.5501 18.9475 39.0862 29.2002 33.5409 29.2002C27.9955 29.2002 26.5265 18.9579 26.5265 14.8506C26.5265 10.7433 27.9749 0.516553 33.5409 0.516553C39.1069 0.516553 40.5501 10.7589 40.5501 14.861" fill="#151515"/>
<path d="M18.9172 0.693359V0.983041H21.4054L15.0738 21.509L7.57827 0.983041H10.0457V0.693359H0V0.983041H2.64334L13.0201 29.3563L21.9434 0.983041H24.3384V0.693359H18.9172Z" fill="#151515"/>
<path d="M67.6459 0.19657V10.0561H67.4183C67.0448 8.10459 66.3453 6.22993 65.3491 4.51075C64.1438 2.50885 62.1419 0.258644 59.571 0.258644C53.6636 0.258644 53.1308 10.8631 53.1308 14.8824C53.1308 18.5034 53.4205 22.2227 54.7292 25.6109C55.65 27.9853 56.9794 29.1492 59.4469 29.1492C60.4523 29.1577 61.4441 28.9158 62.3327 28.4453C63.2214 27.9748 63.9789 27.2905 64.537 26.4541C64.7669 26.0097 64.8673 25.5096 64.8267 25.0109V17.3912H62.2402V17.0705H71.6963V17.3705H69.4874V28.7509H69.3167C69.0678 28.2868 68.6989 27.898 68.2485 27.625C67.7981 27.3521 67.2828 27.205 66.7562 27.199C65.9233 27.2387 65.1147 27.4916 64.4077 27.9336L63.7662 28.2853C62.3846 28.9661 60.8727 29.3419 59.3331 29.3871C52.0031 29.3871 48.1079 21.5709 48.1079 15.0893C48.1079 10.3458 49.9184 5.26082 53.7567 2.31228C55.4564 0.902975 57.5718 0.0906271 59.7779 0C60.6508 0.0353042 61.509 0.235391 62.3075 0.589709L62.8972 0.817316C63.5724 1.10125 64.2917 1.26578 65.0232 1.30357C65.9233 1.30357 66.7303 0.713858 67.4183 0.19657H67.6459Z" fill="#151515"/>
<path d="M70.4648 0.693359H80.5468V0.983041H77.8724V22.8643C77.8724 26.2888 81.4003 28.3786 84.4885 28.3786C87.8147 28.3786 90.6132 26.0664 90.6132 22.6885V0.983041H87.4526V0.693359H113.467V10.8632H113.286C112.986 8.17852 112.469 5.42137 110.622 3.32636C108.775 1.23134 106.194 0.983041 103.582 0.983041H100.762V14.0342C101.346 14.0999 101.934 14.1344 102.521 14.1377C106.059 14.1377 106.98 11.7013 107.135 8.68546H107.394V20.1382H107.135C106.691 17.4018 105.48 14.4481 102.273 14.4481C101.756 14.4481 101.269 14.4791 100.762 14.5205V28.4873H105.009C107.228 28.4548 109.348 27.5671 110.927 26.0094C112.247 24.7082 113.134 23.0321 113.467 21.209C113.634 20.1819 113.736 19.1452 113.772 18.1053H114V28.7925H93.6704V28.5028H96.0344V0.983041H91.0426V22.7609C91.0426 27.2613 86.7646 29.2528 82.766 29.2528C78.2293 29.2528 73.2323 27.0544 73.2323 21.8711V0.983041H70.4752L70.4648 0.693359Z" fill="#151515"/>
</g>
<defs>
<clipPath id="clip0">
<rect width="114" height="29.6251" fill="white"/>
</clipPath>
</defs>
</svg>
